# xmcd CD database file
#
# Track frame offsets:
#	150
#	21538
#	42570
#
# Disc length: 851 seconds
#
# Revision: 0
# Processed by: cddbd v1.5.1PL2 Copyright (c) Steve Scherf et al.
# Submitted via: CDex 1.51
#
DISCID=25035103
DTITLE=Mercadonegro - ...Eso me duele
DYEAR=2002
DGENRE=Salsa
TTITLE0=Eso me duele
TTITLE1=La mujer que tengo
TTITLE2=Eso me duele (instrumental)
EXTD=YEAR: 2002
EXTT0=
EXTT1=
EXTT2=
PLAYORDER=
